solid WideScopeMk9.48
facet normal -0.00014618132073466938 -4.694463989054894e-05 0.9999999882136111
  outer loop
    vertex -7.367633238070064 -104.35011934435445 4.154434045602039
    vertex -6.967569614409334 -98.84864370671733 4.154751870680001
    vertex -7.367644756165142 -98.84837857855403 4.154429891864525
  endloop
endfacet
facet normal -0.00014618132073466938 -4.694463989054894e-05 0.9999999882136111
  outer loop
    vertex -6.967569614409334 -98.84864370671733 4.154751870680001
    vertex -7.367633238070064 -104.35011934435445 4.154434045602039
    vertex -6.964275992514941 -104.3501193177574 4.154231645355712
  endloop
endfacet
facet normal 0.000955332519395814 -3.1093503372781156e-05 0.9999995431863815
  outer loop
    vertex 0.4363034167755407 -104.35011934964042 4.154640697353118
    vertex 0.8323287231705442 -98.85011934438836 4.154434164739915
    vertex 0.432430110715097 -98.84724742569989 4.154987710902533
  endloop
endfacet
facet normal 0.000955332519395814 -3.1093503372781156e-05 0.9999995431863815
  outer loop
    vertex 0.8323287231705442 -98.85011934438836 4.154434164739915
    vertex 0.4363034167755407 -104.35011934964042 4.154640697353118
    vertex 0.8323481950097664 -104.35011934435374 4.15443543088571
  endloop
endfacet
facet normal -0.9999997350569694 -0.0006680359352403707 -0.0002891608214271007
  outer loop
    vertex 0.432430110715097 -98.84724742569989 4.154987710902533
    vertex 0.43703147307149987 -104.35011922588328 0.9547284731729745
    vertex 0.4363034167755407 -104.35011934964042 4.154640697353118
  endloop
endfacet
facet normal -0.9999997350569694 -0.0006680359352403707 -0.0002891608214271007
  outer loop
    vertex 0.43703147307149987 -104.35011922588328 0.9547284731729745
    vertex 0.432430110715097 -98.84724742569989 4.154987710902533
    vertex 0.43355793808757476 -98.8551583329278 0.9549877262548588
  endloop
endfacet
facet normal -0.9999999979446113 3.273041402094897e-05 5.5131641614965637e-05
  outer loop
    vertex -7.367633238070064 -104.35011934435445 4.154434045602039
    vertex -7.367626845891518 -98.84837857855486 1.0041842728287818
    vertex -7.367998511808336 -104.35033511078308 1.0041843597727984
  endloop
endfacet
facet normal -0.9999999979446113 3.273041402094897e-05 5.5131641614965637e-05
  outer loop
    vertex -7.367626845891518 -98.84837857855486 1.0041842728287818
    vertex -7.367633238070064 -104.35011934435445 4.154434045602039
    vertex -7.367644756165142 -98.84837857855403 4.154429891864525
  endloop
endfacet
facet normal 0.9999999999929485 3.5403337667734377e-06 -1.2526721067804023e-06
  outer loop
    vertex 0.8323247768013423 -98.85011827455142 1.004074775566617
    vertex 0.8323481950097664 -104.35011934435374 4.15443543088571
    vertex 0.832344248643082 -104.35012006960663 1.0040760417127377
  endloop
endfacet
facet normal 0.9999999999929485 3.5403337667734377e-06 -1.2526721067804023e-06
  outer loop
    vertex 0.8323481950097664 -104.35011934435374 4.15443543088571
    vertex 0.8323247768013423 -98.85011827455142 1.004074775566617
    vertex 0.8323287231705442 -98.85011934438836 4.154434164739915
  endloop
endfacet
facet normal 6.076217451454037e-06 -0.9999999999382014 9.310044225302449e-06
  outer loop
    vertex 0.13226538294137816 -104.35012006960663 0.5041825164475954
    vertex 0.43703147307149987 -104.35011922588328 0.9547284731729745
    vertex -6.964072219323298 -104.35011922285128 0.9546107735207067
  endloop
endfacet
facet normal 6.076217451454037e-06 -0.9999999999382014 9.310044225302449e-06
  outer loop
    vertex 0.43703147307149987 -104.35011922588328 0.9547284731729745
    vertex 0.13226538294137816 -104.35012006960663 0.5041825164475954
    vertex 0.832344248643082 -104.35012006960663 1.0040760417127377
  endloop
endfacet
facet normal 6.076217451454037e-06 -0.9999999999382014 9.310044225302449e-06
  outer loop
    vertex 0.43703147307149987 -104.35011922588328 0.9547284731729745
    vertex 0.832344248643082 -104.35012006960663 1.0040760417127377
    vertex 0.4363034167755407 -104.35011934964042 4.154640697353118
  endloop
endfacet
facet normal 6.076217451454037e-06 -0.9999999999382014 9.310044225302449e-06
  outer loop
    vertex 0.4363034167755407 -104.35011934964042 4.154640697353118
    vertex 0.832344248643082 -104.35012006960663 1.0040760417127377
    vertex 0.8323481950097664 -104.35011934435374 4.15443543088571
  endloop
endfacet
facet normal 6.076217451454037e-06 -0.9999999999382014 9.310044225302449e-06
  outer loop
    vertex -6.667813780063058 -104.35012006960663 0.5041693997707807
    vertex -6.964072219323298 -104.35011922285128 0.9546107735207067
    vertex -7.367998511808336 -104.35033511078308 1.0041843597727984
  endloop
endfacet
facet normal 6.076217451454037e-06 -0.9999999999382014 9.310044225302449e-06
  outer loop
    vertex -6.964072219323298 -104.35011922285128 0.9546107735207067
    vertex -6.667813780063058 -104.35012006960663 0.5041693997707807
    vertex 0.13226538294137816 -104.35012006960663 0.5041825164475954
  endloop
endfacet
facet normal 6.076217451454037e-06 -0.9999999999382014 9.310044225302449e-06
  outer loop
    vertex -7.367998511808336 -104.35033511078308 1.0041843597727984
    vertex -6.964072219323298 -104.35011922285128 0.9546107735207067
    vertex -6.964275992514941 -104.3501193177574 4.154231645355712
  endloop
endfacet
facet normal 6.076217451454037e-06 -0.9999999999382014 9.310044225302449e-06
  outer loop
    vertex -7.367998511808336 -104.35033511078308 1.0041843597727984
    vertex -6.964275992514941 -104.3501193177574 4.154231645355712
    vertex -7.367633238070064 -104.35011934435445 4.154434045602039
  endloop
endfacet
facet normal -0.00014222491914892192 0.9999995201248906 -0.0009692894619479121
  outer loop
    vertex -6.667812967722281 -98.84840142036538 0.5041682228398692
    vertex -6.966423959644879 -98.86316932511022 0.9547518553277324
    vertex 0.1322661952856014 -98.84836543495723 0.504184136608029
  endloop
endfacet
facet normal -0.00014222491914892192 0.9999995201248906 -0.0009692894619479121
  outer loop
    vertex -6.966423959644879 -98.86316932511022 0.9547518553277324
    vertex -6.667812967722281 -98.84840142036538 0.5041682228398692
    vertex -7.367626845891518 -98.84837857855486 1.0041842728287818
  endloop
endfacet
facet normal -0.00014222491914892192 0.9999995201248906 -0.0009692894619479121
  outer loop
    vertex -6.966423959644879 -98.86316932511022 0.9547518553277324
    vertex -7.367626845891518 -98.84837857855486 1.0041842728287818
    vertex -6.967569614409334 -98.84864370671733 4.154751870680001
  endloop
endfacet
facet normal -0.00014222491914892192 0.9999995201248906 -0.0009692894619479121
  outer loop
    vertex -6.967569614409334 -98.84864370671733 4.154751870680001
    vertex -7.367626845891518 -98.84837857855486 1.0041842728287818
    vertex -7.367644756165142 -98.84837857855403 4.154429891864525
  endloop
endfacet
facet normal -0.00014222491914892192 0.9999995201248906 -0.0009692894619479121
  outer loop
    vertex 0.1322661952856014 -98.84836543495723 0.504184136608029
    vertex 0.43355793808757476 -98.8551583329278 0.9549877262548588
    vertex 0.8323247768013423 -98.85011827455142 1.004074775566617
  endloop
endfacet
facet normal -0.00014222491914892192 0.9999995201248906 -0.0009692894619479121
  outer loop
    vertex 0.43355793808757476 -98.8551583329278 0.9549877262548588
    vertex 0.1322661952856014 -98.84836543495723 0.504184136608029
    vertex -6.966423959644879 -98.86316932511022 0.9547518553277324
  endloop
endfacet
facet normal -0.00014222491914892192 0.9999995201248906 -0.0009692894619479121
  outer loop
    vertex 0.8323247768013423 -98.85011827455142 1.004074775566617
    vertex 0.43355793808757476 -98.8551583329278 0.9549877262548588
    vertex 0.432430110715097 -98.84724742569989 4.154987710902533
  endloop
endfacet
facet normal -0.00014222491914892192 0.9999995201248906 -0.0009692894619479121
  outer loop
    vertex 0.8323247768013423 -98.85011827455142 1.004074775566617
    vertex 0.432430110715097 -98.84724742569989 4.154987710902533
    vertex 0.8323287231705442 -98.85011934438836 4.154434164739915
  endloop
endfacet
facet normal 0.5811173319538666 1.0116527526150362e-06 -0.8138197874847946
  outer loop
    vertex 0.1322661952856014 -98.84836543495723 0.504184136608029
    vertex 0.832344248643082 -104.35012006960663 1.0040760417127377
    vertex 0.13226538294137816 -104.35012006960663 0.5041825164475954
  endloop
endfacet
facet normal 0.5811173319538666 1.0116527526150362e-06 -0.8138197874847946
  outer loop
    vertex 0.832344248643082 -104.35012006960663 1.0040760417127377
    vertex 0.1322661952856014 -98.84836543495723 0.504184136608029
    vertex 0.8323247768013423 -98.85011827455142 1.004074775566617
  endloop
endfacet
facet normal -0.5812504851695044 1.9582493692771268e-05 -0.8137246912234762
  outer loop
    vertex -7.367626845891518 -98.84837857855486 1.0041842728287818
    vertex -6.667813780063058 -104.35012006960663 0.5041693997707807
    vertex -7.367998511808336 -104.35033511078308 1.0041843597727984
  endloop
endfacet
facet normal -0.5812504851695044 1.9582493692771268e-05 -0.8137246912234762
  outer loop
    vertex -6.667813780063058 -104.35012006960663 0.5041693997707807
    vertex -7.367626845891518 -98.84837857855486 1.0041842728287818
    vertex -6.667812967722281 -98.84840142036538 0.5041682228398692
  endloop
endfacet
facet normal 2.1345665858456054e-06 4.0281390274156646e-08 -0.9999999999977212
  outer loop
    vertex -6.667812967722281 -98.84840142036538 0.5041682228398692
    vertex 0.13226538294137816 -104.35012006960663 0.5041825164475954
    vertex -6.667813780063058 -104.35012006960663 0.5041693997707807
  endloop
endfacet
facet normal 2.1345665858456054e-06 4.0281390274156646e-08 -0.9999999999977212
  outer loop
    vertex 0.13226538294137816 -104.35012006960663 0.5041825164475954
    vertex -6.667812967722281 -98.84840142036538 0.5041682228398692
    vertex 0.1322661952856014 -98.84836543495723 0.504184136608029
  endloop
endfacet
facet normal 0.9999998459888428 0.000513855028803407 0.00020970288483727594
  outer loop
    vertex -6.964072219323298 -104.35011922285128 0.9546107735207067
    vertex -6.967569614409334 -98.84864370671733 4.154751870680001
    vertex -6.964275992514941 -104.3501193177574 4.154231645355712
  endloop
endfacet
facet normal 0.9999998459888428 0.000513855028803407 0.00020970288483727594
  outer loop
    vertex -6.967569614409334 -98.84864370671733 4.154751870680001
    vertex -6.964072219323298 -104.35011922285128 0.9546107735207067
    vertex -6.966423959644879 -98.86316932511022 0.9547518553277324
  endloop
endfacet
facet normal -1.7372283559229797e-05 -4.9704996712455216e-05 0.9999999986138086
  outer loop
    vertex -6.964072219323298 -104.35011922285128 0.9546107735207067
    vertex 0.43355793808757476 -98.8551583329278 0.9549877262548588
    vertex -6.966423959644879 -98.86316932511022 0.9547518553277324
  endloop
endfacet
facet normal -1.7372283559229797e-05 -4.9704996712455216e-05 0.9999999986138086
  outer loop
    vertex 0.43355793808757476 -98.8551583329278 0.9549877262548588
    vertex -6.964072219323298 -104.35011922285128 0.9546107735207067
    vertex 0.43703147307149987 -104.35011922588328 0.9547284731729745
  endloop
endfacet
facet normal -0.9999999979446113 3.273041402094898e-05 5.513164161496564e-05
  outer loop
    vertex -7.367633238070064 -104.35011934435445 4.154434045602039
    vertex -7.367626845891518 -98.84837857855486 1.0041842728287818
    vertex -7.367998511808336 -104.35033511078308 1.0041843597727984
  endloop
endfacet
facet normal -0.9999999979446113 3.273041402094898e-05 5.513164161496564e-05
  outer loop
    vertex -7.367626845891518 -98.84837857855486 1.0041842728287818
    vertex -7.367633238070064 -104.35011934435445 4.154434045602039
    vertex -7.367644756165142 -98.84837857855403 4.154429891864525
  endloop
endfacet
endsolid WideScopeMk9.48
